<?xml version="1.0" encoding="UTF-8"?>
<svg xmlns="http://www.w3.org/2000/svg" xmlns:xlink="http://www.w3.org/1999/xlink" viewBox="138.6 101.1 727.0 796.2">
<path fill-rule="nonzero" fill="rgb(91.799927%, 88.999939%, 80.39856%)" fill-opacity="1" d="M 500.910156 105.226562 C 508.179688 105.375 517.957031 105.800781 530.230469 106.472656 C 571.960938 108.777344 612.308594 116.292969 651.269531 129.007812 C 689.039062 141.394531 722.953125 162.683594 753.082031 188.757812 C 765.015625 199.085938 775.875 210.757812 785.65625 223.746094 C 787.792969 226.601562 789.410156 230.414062 787.820312 233.992188 C 785.351562 239.507812 779.496094 238.558594 774.503906 236.558594 C 767.167969 233.59375 735.28125 221.140625 732.183594 233.636719 C 731.359375 236.941406 734.160156 239.453125 737.050781 240.082031 C 748.285156 242.539062 758.007812 244.703125 767.359375 248.214844 C 777.179688 251.890625 787.09375 257.035156 797.105469 263.632812 C 819.390625 278.324219 835.351562 293.714844 837.878906 320.019531 C 839.660156 338.605469 840.46875 350.648438 840.304688 356.121094 C 839.976562 367.136719 839.277344 384.28125 838.21875 407.558594 C 837.726562 418.1875 839.632812 428.132812 843.9375 437.363281 C 851.851562 454.328125 857.390625 471.558594 860.558594 489.019531 C 862.054688 497.289062 861.917969 505.105469 860.121094 512.472656 C 856.953125 525.433594 847.765625 542.828125 835.105469 548.175781 C 829.304688 550.632812 821.640625 549.3125 816.414062 545.171875 C 809.570312 539.753906 802.90625 536.242188 793.921875 537.902344 C 772.144531 541.90625 763.726562 568.367188 765.660156 588.074219 C 766.632812 598.128906 770.664062 604.179688 781.222656 603.027344 C 785.214844 602.589844 785.820312 599.613281 785.144531 595.894531 C 784.472656 592.164062 783.679688 587.089844 782.789062 580.683594 C 782.308594 577.226562 782.511719 574.496094 783.417969 572.507812 C 784.558594 569.984375 786.546875 568.132812 789.371094 566.96875 C 790.878906 567.0625 792.867188 567.640625 795.335938 568.722656 C 799.4375 579.160156 799.476562 589.695312 795.433594 600.324219 C 790.34375 613.683594 788.136719 622.421875 788.371094 633.820312 C 788.507812 641.035156 789.632812 649.332031 788.121094 655.902344 C 786.503906 662.953125 782.527344 675.132812 775.875 678.21875 C 773.269531 679.441406 770.910156 679.246094 768.8125 677.644531 C 768.664062 677.09375 768.265625 676.492188 767.59375 675.820312 C 766.867188 670.703125 766.578125 666.667969 766.714844 663.695312 C 767.042969 656.933594 767.261719 651.609375 767.359375 647.757812 C 767.429688 644.695312 767.179688 642.625 766.605469 641.527344 C 763.945312 636.496094 755.730469 637.070312 752.683594 641.035156 C 751.546875 642.53125 750.875 645.65625 750.667969 650.414062 C 750.382812 657.535156 749.546875 663.871094 748.160156 669.441406 C 745.800781 678.917969 742.222656 685.023438 731.292969 683.320312 C 728.316406 682.867188 725.917969 681.648438 724.078125 679.671875 L 721.761719 673.226562 C 721.417969 665.847656 721.28125 658.207031 721.324219 650.308594 C 721.363281 641.898438 713.902344 637.34375 706.304688 639.855469 C 700.792969 641.691406 700.875 646.316406 701.082031 651.707031 C 701.65625 667.179688 701.929688 675.652344 701.917969 677.136719 C 701.890625 678.699219 700.996094 680.113281 699.597656 680.8125 C 696.171875 682.527344 692.355469 683.484375 688.160156 683.71875 C 679.960938 684.171875 674.1875 680.261719 670.839844 672.007812 L 667.355469 661.925781 C 667.207031 659.304688 667.125 656.492188 667.136719 653.476562 C 667.152344 649.292969 666.808594 646.519531 666.109375 645.175781 C 664.203125 641.554688 660.570312 640.28125 655.207031 641.351562 C 650.035156 642.378906 647.320312 645.628906 647.074219 651.074219 C 646.894531 655.09375 647.226562 661.816406 648.089844 671.238281 C 648.582031 676.601562 649.105469 685.734375 644.523438 687.53125 C 634.019531 691.660156 624.527344 691.511719 616.039062 687.066406 C 615.945312 686.09375 615.300781 685.089844 614.105469 684.0625 C 613.925781 672.335938 614.242188 660.964844 614.585938 651.007812 C 614.710938 647.398438 614.257812 644.914062 613.199219 643.570312 C 608.839844 637.988281 599.789062 639.855469 596.703125 645.863281 C 595.769531 647.6875 595.371094 650.730469 595.523438 654.996094 C 595.796875 662.71875 595.921875 669.015625 595.878906 673.886719 C 595.851562 678.644531 595.386719 682.15625 594.496094 684.445312 C 593.507812 686.984375 592.453125 688.464844 591.328125 688.890625 C 581.273438 692.71875 572.375 692.140625 564.640625 687.136719 L 561.925781 677.367188 C 562.117188 670.402344 562.226562 663.105469 562.265625 655.464844 C 562.308594 647 560.085938 637.867188 549.703125 639.730469 C 545.453125 640.484375 543.957031 645.753906 543.492188 649.605469 C 543.136719 652.582031 542.863281 660.703125 542.65625 673.96875 C 542.585938 678.316406 541.820312 686.160156 537.375 687.710938 C 531.617188 689.714844 525.730469 689.671875 519.726562 687.601562 C 517.078125 686.683594 514.390625 684.007812 511.675781 679.550781 C 511.265625 677.890625 510.796875 676.132812 510.289062 674.269531 C 509.796875 672.445312 509.398438 670.675781 509.097656 668.976562 C 505.519531 648.207031 501.816406 627.660156 498.003906 607.320312 L 496.753906 597.828125 C 496.5625 596.386719 495.917969 595.042969 494.902344 593.988281 C 487.210938 586.046875 478.695312 579.011719 469.355469 572.878906 C 466.625 571.097656 465.035156 569.640625 464.554688 568.503906 C 461.332031 560.863281 473.523438 559.476562 477.914062 558.65625 C 487.113281 556.914062 494.988281 559.421875 501.527344 566.15625 C 508.890625 573.730469 515.417969 580.339844 521.136719 586.003906 C 524.484375 589.324219 528.542969 593.082031 532.546875 589.984375 C 536.921875 586.609375 532.917969 578.269531 530.738281 574.375 C 521.742188 558.382812 505.886719 542.523438 485.644531 545.074219 C 477.679688 546.078125 471.300781 547.820312 466.488281 550.273438 C 444.382812 561.578125 423.054688 572.535156 400.976562 580.191406 C 394.886719 582.289062 389.15625 582.109375 383.792969 579.65625 C 352.621094 565.375 315.042969 548.558594 271.089844 529.191406 C 265.25 526.628906 256.761719 524.5 256.210938 534.035156 C 255.992188 537.601562 258.433594 539.699219 261.585938 541.46875 C 271.640625 547.121094 279.304688 551.578125 284.558594 554.828125 C 289.839844 558.105469 295.226562 561.097656 295.695312 568.394531 C 296.667969 583.496094 298.011719 598.828125 299.699219 614.398438 C 299.878906 616.015625 298.875 617.523438 297.3125 617.992188 C 295.84375 618.417969 294.0625 618.554688 291.9375 618.402344 C 261.355469 616.25 239.835938 599.859375 218.167969 578.144531 C 193.457031 553.386719 175.53125 524.789062 164.410156 492.378906 C 144.8125 435.332031 137.695312 375.488281 146.457031 315.6875 C 150.367188 288.980469 160.019531 264.757812 175.394531 243.019531 C 206.757812 198.671875 256.210938 168.511719 303.8125 143.890625 C 313.824219 138.71875 324.136719 134.332031 334.75 130.738281 C 349.054688 125.910156 363.605469 121.847656 378.402344 118.558594 L 420.285156 111.121094 C 446.878906 107.253906 473.742188 105.292969 500.910156 105.226562 M 318.117188 144.578125 C 316.375 144.410156 315.097656 145.082031 314.261719 146.605469 C 313.988281 147.101562 313.933594 147.691406 314.113281 148.238281 C 322.382812 174.640625 330.390625 201.417969 331.886719 228.136719 C 332.640625 241.359375 333.613281 253.167969 324.917969 263.261719 C 318.679688 270.519531 314.496094 275.457031 312.34375 278.089844 C 310.136719 280.777344 308.515625 283.605469 307.460938 286.554688 C 302.785156 299.707031 301.136719 313.175781 302.539062 326.988281 C 304.019531 341.582031 305.199219 354.023438 306.074219 364.296875 C 307.789062 384.28125 303.320312 409.078125 291.457031 424.605469 C 285.929688 431.847656 278.320312 438.488281 268.59375 444.535156 C 262.890625 448.089844 256.253906 450.652344 248.695312 452.246094 C 236.914062 454.726562 226.683594 456.277344 214.519531 456.152344 C 213.902344 456.152344 209.597656 456.03125 201.601562 455.769531 C 197.035156 455.617188 193.664062 456.140625 191.152344 459.71875 C 187.96875 464.234375 189.410156 470.609375 194.210938 473.148438 C 197.0625 474.65625 199.738281 475.453125 202.246094 475.535156 C 223.96875 476.261719 247.503906 476.097656 266.457031 468.527344 C 304.222656 453.453125 318.636719 420.410156 323.929688 382.03125 C 325.070312 373.789062 325.316406 362.199219 324.644531 347.273438 C 324 332.695312 323.421875 318.964844 322.945312 306.058594 C 322.902344 304.753906 323.027344 302.191406 323.328125 298.335938 C 323.371094 297.757812 323.546875 297.210938 323.820312 296.71875 C 327.785156 289.734375 331.28125 283.78125 334.339844 278.871094 C 339.238281 270.984375 342.40625 264.894531 343.855469 260.601562 C 347.984375 248.40625 348.710938 232.882812 346.613281 220.566406 C 342.472656 196.191406 334.53125 172.777344 322.804688 150.351562 C 321.546875 147.949219 320.460938 146.25 319.542969 145.277344 C 319.171875 144.878906 318.664062 144.632812 318.117188 144.578125 M 423.25 263.769531 C 424.386719 264.539062 425.867188 264.539062 426.976562 263.757812 C 435.164062 258.09375 444.039062 253.125 453.625 248.859375 C 478.433594 237.832031 505.3125 227.65625 533.042969 230.453125 C 542.3125 231.398438 548.675781 234.800781 555.4375 240.714844 C 559.46875 244.238281 563.636719 248.011719 567.945312 252.042969 C 571.070312 254.976562 575.101562 257.214844 578.296875 253.414062 C 579.574219 251.90625 579.78125 249.78125 578.820312 248.09375 C 577.503906 245.761719 575.515625 243.183594 572.855469 240.355469 C 549.84375 215.96875 517.039062 212.789062 486.605469 224.035156 C 478.488281 227.039062 472.660156 229.4375 469.121094 231.207031 C 454.570312 238.53125 440.882812 245.0625 428.035156 250.808594 C 425.46875 251.945312 423.371094 253.402344 421.710938 255.171875 C 421.382812 255.511719 421.164062 255.925781 421.054688 256.363281 C 420.21875 259.75 420.957031 262.222656 423.25 263.769531 M 483.808594 467.015625 C 507.480469 469.335938 531.863281 462.257812 551.804688 447.292969 C 570.808594 433.027344 584.386719 412.632812 589.875 390.070312 C 594.097656 372.757812 593.34375 355.011719 587.71875 338.894531 C 581.234375 320.253906 568.546875 304.78125 551.667969 294.878906 C 533.617188 284.277344 511.867188 280.695312 490.242188 284.757812 C 480.066406 286.675781 470.136719 290.242188 460.867188 295.316406 C 440.429688 306.511719 424.207031 324.449219 415.28125 345.78125 C 402.609375 376.050781 406.078125 409.464844 424.453125 434.085938 C 438.457031 452.820312 459.796875 464.65625 483.808594 467.015625 M 765.179688 439.597656 C 778.671875 441.257812 791.441406 437.0625 801.382812 427.679688 C 806.980469 422.410156 811.53125 415.636719 814.808594 407.722656 C 822.242188 389.726562 822.53125 367.121094 815.578125 345.792969 C 812.203125 335.4375 807.242188 325.753906 801.015625 317.371094 C 794.347656 308.390625 786.410156 301.121094 777.78125 296.113281 C 762.820312 287.417969 746.71875 286.046875 732.9375 292.273438 C 725.945312 295.429688 719.773438 300.460938 714.753906 307.058594 C 709.71875 313.683594 705.960938 321.761719 703.699219 330.828125 C 698.96875 349.851562 701.132812 371.910156 709.707031 391.660156 C 714.121094 401.851562 720.085938 411.054688 727.191406 418.652344 C 738.328125 430.558594 751.710938 437.953125 765.179688 439.597656 M 614.984375 331.871094 C 619.605469 328.042969 618.589844 319.484375 615.75 315.453125 C 612.664062 311.078125 612.515625 307.894531 610.457031 303.507812 C 609.046875 300.5 606.988281 299.625 604.285156 300.886719 C 592.957031 306.152344 598.746094 320.527344 604.808594 327.453125 C 607.167969 330.144531 610.046875 333.570312 613.679688 332.542969 C 614.160156 332.417969 614.597656 332.1875 614.984375 331.871094 M 644.097656 545.15625 C 646.910156 543.03125 648.761719 540.179688 649.652344 536.613281 C 649.832031 535.886719 651.011719 530.742188 653.191406 521.15625 C 653.917969 517.933594 654.972656 515.585938 656.332031 514.117188 C 659.964844 510.207031 664.410156 514.542969 667.382812 517.535156 C 669.714844 519.644531 672.074219 521.8125 674.449219 524.050781 C 677.519531 526.929688 680.714844 529.273438 683.964844 525.378906 C 685.28125 522.527344 686.40625 519.742188 687.351562 517.027344 C 689.191406 511.691406 694.769531 509.757812 698.035156 515.53125 C 700.1875 520.785156 702.476562 526.230469 704.933594 531.839844 C 708.5 540.027344 714.765625 538.753906 719.976562 533.390625 C 722.078125 531.742188 724.3125 530.25 726.699219 528.917969 C 730.085938 527.027344 732.25 525.460938 733.171875 524.242188 C 735.667969 520.90625 735.941406 516.945312 734.007812 512.375 C 722.035156 484.109375 710.378906 455.757812 699.050781 427.324219 C 695.757812 419.75 692.386719 412.277344 688.945312 404.910156 C 687.488281 401.796875 685.625 399.175781 683.363281 397.023438 C 680.125 393.949219 675.078125 394.992188 670.828125 396.324219 C 668.714844 396.996094 667.261719 397.859375 666.480469 398.914062 C 649.0625 422.355469 635.59375 448.539062 626.0625 477.484375 C 619.46875 497.523438 613.558594 520.59375 627.394531 539.382812 C 631.207031 544.539062 637.53125 549.175781 644.097656 545.15625 M 738.617188 451.972656 C 735.035156 455.5625 740.5625 462.792969 742.949219 465.5625 C 755.414062 480.074219 776.273438 495.039062 793.71875 478.910156 C 796.625 476.222656 799.835938 470.007812 796.023438 466.960938 C 795.007812 466.152344 793.773438 465.917969 792.332031 466.25 C 779.332031 469.265625 767.277344 467.304688 756.183594 460.363281 C 749.3125 456.070312 745.363281 453.164062 741.617188 451.710938 C 740.289062 451.203125 739.289062 451.285156 738.617188 451.972656 M 574.542969 468.648438 C 574.652344 467.304688 573.445312 466.25 572.128906 466.535156 C 570.261719 466.933594 568.425781 467.867188 566.628906 469.320312 C 562.691406 472.476562 558.507812 475.824219 554.066406 479.375 C 539.253906 491.214844 515.667969 497.632812 496.714844 491.980469 C 493.65625 491.0625 491.875 490.566406 491.390625 490.472656 C 490.980469 490.402344 490.554688 490.417969 490.144531 490.539062 C 484.671875 492.0625 486.785156 498.167969 490.433594 500.59375 C 493.246094 502.460938 496.371094 503.816406 499.800781 504.683594 C 519.453125 509.632812 537.84375 506.382812 554.957031 494.914062 C 562.855469 489.609375 573.664062 478.691406 574.542969 468.648438 "/>
<path fill-rule="nonzero" fill="rgb(91.799927%, 88.999939%, 80.39856%)" fill-opacity="1" d="M 325.523438 568.3125 C 337.410156 576.554688 348.371094 585.746094 358.394531 595.882812 C 360.039062 597.554688 361.464844 601.875 361.988281 604.796875 C 364.703125 619.953125 367.828125 636.328125 379.320312 647.617188 C 384.3125 652.542969 391.019531 656.367188 397.328125 650.964844 C 405.476562 641.773438 401.550781 625.851562 400.6875 614.6875 C 399.796875 603.082031 410.945312 598.335938 420.558594 601.792969 C 424.414062 605.507812 426.828125 610.132812 427.828125 615.660156 C 431.050781 633.574219 433.847656 651.992188 436.207031 670.90625 C 437.566406 681.824219 440.554688 692.414062 441.527344 702.234375 C 442.679688 714.03125 445.917969 722.808594 452.347656 731.027344 C 461.648438 742.917969 471.988281 753.164062 483.355469 761.792969 C 487.675781 765.070312 491.460938 767.511719 494.738281 769.144531 C 498.195312 770.871094 503.460938 769.046875 504.40625 764.824219 C 505.601562 759.488281 500.375 750.40625 496.878906 744.851562 C 491.789062 736.910156 492.859375 730.105469 500.089844 724.441406 C 508.917969 717.515625 524.9375 719.695312 534.617188 723.621094 C 538.128906 725.9375 539.804688 728.503906 539.734375 732.945312 C 539.640625 739.460938 539.980469 746.113281 540.777344 752.902344 C 541.367188 757.9375 542.242188 761.75 543.4375 764.371094 C 545.578125 769.101562 551.722656 772.203125 556.289062 768.691406 C 558.523438 766.976562 559.824219 764.90625 560.210938 762.464844 C 561.210938 756.167969 561.375 749.421875 560.675781 742.234375 C 560.964844 737.554688 561.074219 733.164062 561.003906 729.066406 C 560.9375 725.140625 561.417969 722.304688 562.417969 720.53125 C 563.953125 717.832031 566.355469 715.910156 569.605469 714.746094 C 575.335938 712.703125 580.890625 712.6875 586.253906 714.703125 C 589.105469 717.105469 590.792969 719.984375 591.328125 723.316406 C 592.984375 733.726562 594.523438 744.140625 595.933594 754.5625 C 596.675781 760.050781 599.445312 763.136719 604.230469 763.808594 C 610.113281 764.644531 614.433594 762.558594 617.203125 757.566406 C 618.78125 746.964844 618.550781 736.402344 616.507812 725.882812 C 614.902344 717.597656 618.945312 713.210938 627.066406 712.058594 C 632.125 711.34375 637.078125 711.742188 641.917969 713.238281 C 644.976562 715.554688 646.855469 718.929688 647.554688 723.332031 C 648.664062 730.421875 649.761719 737.539062 650.832031 744.6875 C 651.628906 749.914062 653.191406 756.320312 658.304688 758.402344 C 663.957031 760.722656 668.714844 756.992188 669.851562 751.269531 C 671.140625 745.742188 671.457031 740.078125 670.8125 734.304688 C 669.769531 724.964844 666.328125 712.757812 679.4375 710.464844 C 686.722656 709.191406 693.757812 708.996094 700.53125 709.890625 C 702.3125 712.125 703.152344 713.867188 703.054688 715.128906 C 702.191406 725.648438 701.902344 736.964844 702.191406 749.078125 C 702.273438 752.546875 702.890625 755.742188 704.027344 758.691406 C 705.949219 763.617188 712.257812 766.496094 716.507812 762.613281 C 718.511719 760.789062 719.566406 758.292969 719.675781 755.140625 C 720.046875 744.949219 720.910156 734.824219 722.296875 724.773438 C 722.96875 722.164062 723.558594 719.558594 724.035156 716.941406 C 725.765625 707.585938 734.1875 705.15625 742.441406 705.488281 C 744.167969 705.554688 746.378906 706.214844 749.050781 707.460938 C 749.886719 717.421875 749.886719 727.527344 749.050781 737.773438 C 748.40625 745.703125 748.558594 751.683594 749.503906 755.703125 C 753.589844 773.121094 759.1875 797.644531 766.289062 829.289062 C 767.59375 835.117188 767.992188 839.273438 767.457031 841.785156 C 762.53125 864.785156 730.332031 870.4375 711.75 877.722656 C 702.792969 881.234375 695.703125 883.617188 690.464844 884.894531 C 672.554688 889.269531 657.894531 891.875 646.496094 892.714844 C 623.691406 894.398438 602.035156 890.546875 581.535156 881.164062 C 572.621094 877.089844 562.910156 870.328125 554.613281 864.949219 C 538.183594 854.335938 518.394531 843.113281 498.851562 836.421875 C 477.800781 829.207031 459.316406 822.992188 443.378906 817.78125 C 420.683594 810.332031 400.933594 802.695312 384.109375 794.835938 C 380.324219 793.066406 376.703125 789.9375 373.234375 785.480469 C 371.160156 781.089844 369.761719 777.429688 369.023438 774.480469 C 367.007812 766.359375 366.144531 755.496094 364.238281 747.089844 C 360.847656 732.109375 357.765625 718.035156 354.980469 704.882812 C 351.429688 688.164062 348.246094 673.789062 340.578125 659.25 C 340.046875 658.261719 336.179688 651.539062 328.976562 639.101562 C 325.316406 632.777344 322.65625 626.878906 319.832031 620.527344 C 315.375 607.195312 308.722656 583.152344 315.265625 570.300781 C 317.429688 567.515625 320.847656 566.855469 325.523438 568.3125 M 646.511719 865.582031 C 646.183594 866.074219 646.496094 866.746094 647.089844 866.832031 C 649.269531 867.117188 651.464844 867.078125 653.671875 866.691406 C 670.128906 863.867188 686.585938 861.277344 703.054688 858.902344 C 705.207031 858.585938 707.101562 857.820312 708.730469 856.570312 C 709.582031 855.925781 709.734375 854.71875 709.089844 853.867188 C 706.855469 850.976562 700.640625 850.152344 697.214844 849.835938 C 681.195312 848.410156 665.410156 851.785156 652.203125 860.355469 C 649.597656 862.042969 647.703125 863.785156 646.511719 865.582031 "/>
</svg>
